<svg width="162" height="140" viewBox="0 0 162 140" fill="none" xmlns="http://www.w3.org/2000/svg">
<g id="Group 2">
<circle id="Ellipse 1" cx="4" cy="76" r="4" fill="#9A58EF"/>
<circle id="Ellipse 73" cx="4" cy="4" r="4" fill="#9A58EF"/>
<circle id="Ellipse 37" cx="88" cy="76" r="4" fill="#9A58EF"/>
<circle id="Ellipse 74" cx="88" cy="4" r="4" fill="#9A58EF"/>
<circle id="Ellipse 19" cx="4" cy="112" r="4" fill="#9A58EF"/>
<circle id="Ellipse 75" cx="4" cy="40" r="4" fill="#9A58EF"/>
<circle id="Ellipse 38" cx="88" cy="112" r="4" fill="#9A58EF"/>
<circle id="Ellipse 76" cx="88" cy="40" r="4" fill="#9A58EF"/>
<circle id="Ellipse 7" cx="4" cy="88" r="4" fill="#9A58EF"/>
<circle id="Ellipse 77" cx="4" cy="16" r="4" fill="#9A58EF"/>
<circle id="Ellipse 39" cx="88" cy="88" r="4" fill="#9A58EF"/>
<circle id="Ellipse 78" cx="88" cy="16" r="4" fill="#9A58EF"/>
<circle id="Ellipse 20" cx="4" cy="124" r="4" fill="#9A58EF"/>
<circle id="Ellipse 79" cx="4" cy="52" r="4" fill="#9A58EF"/>
<circle id="Ellipse 40" cx="88" cy="124" r="4" fill="#9A58EF"/>
<circle id="Ellipse 80" cx="88" cy="52" r="4" fill="#9A58EF"/>
<circle id="Ellipse 13" cx="4" cy="100" r="4" fill="#9A58EF"/>
<circle id="Ellipse 81" cx="4" cy="28" r="4" fill="#9A58EF"/>
<circle id="Ellipse 41" cx="88" cy="100" r="4" fill="#9A58EF"/>
<circle id="Ellipse 82" cx="88" cy="28" r="4" fill="#9A58EF"/>
<circle id="Ellipse 21" cx="4" cy="136" r="4" fill="#9A58EF"/>
<circle id="Ellipse 83" cx="4" cy="64" r="4" fill="#9A58EF"/>
<circle id="Ellipse 42" cx="88" cy="136" r="4" fill="#9A58EF"/>
<circle id="Ellipse 84" cx="88" cy="64" r="4" fill="#9A58EF"/>
<circle id="Ellipse 4" cx="46" cy="76" r="4" fill="#9A58EF"/>
<circle id="Ellipse 85" cx="46" cy="4" r="4" fill="#9A58EF"/>
<circle id="Ellipse 43" cx="130" cy="76" r="4" fill="#9A58EF"/>
<circle id="Ellipse 86" cx="130" cy="4" r="4" fill="#9A58EF"/>
<circle id="Ellipse 22" cx="46" cy="112" r="4" fill="#9A58EF"/>
<circle id="Ellipse 87" cx="46" cy="40" r="4" fill="#9A58EF"/>
<circle id="Ellipse 44" cx="130" cy="112" r="4" fill="#9A58EF"/>
<circle id="Ellipse 88" cx="130" cy="40" r="4" fill="#9A58EF"/>
<circle id="Ellipse 8" cx="46" cy="88" r="4" fill="#9A58EF"/>
<circle id="Ellipse 89" cx="46" cy="16" r="4" fill="#9A58EF"/>
<circle id="Ellipse 45" cx="130" cy="88" r="4" fill="#9A58EF"/>
<circle id="Ellipse 90" cx="130" cy="16" r="4" fill="#9A58EF"/>
<circle id="Ellipse 23" cx="46" cy="124" r="4" fill="#9A58EF"/>
<circle id="Ellipse 91" cx="46" cy="52" r="4" fill="#9A58EF"/>
<circle id="Ellipse 46" cx="130" cy="124" r="4" fill="#9A58EF"/>
<circle id="Ellipse 92" cx="130" cy="52" r="4" fill="#9A58EF"/>
<circle id="Ellipse 14" cx="46" cy="100" r="4" fill="#9A58EF"/>
<circle id="Ellipse 93" cx="46" cy="28" r="4" fill="#9A58EF"/>
<circle id="Ellipse 47" cx="130" cy="100" r="4" fill="#9A58EF"/>
<circle id="Ellipse 94" cx="130" cy="28" r="4" fill="#9A58EF"/>
<circle id="Ellipse 24" cx="46" cy="136" r="4" fill="#9A58EF"/>
<circle id="Ellipse 95" cx="46" cy="64" r="4" fill="#9A58EF"/>
<circle id="Ellipse 48" cx="130" cy="136" r="4" fill="#9A58EF"/>
<circle id="Ellipse 96" cx="130" cy="64" r="4" fill="#9A58EF"/>
<circle id="Ellipse 2" cx="18" cy="76" r="4" fill="#9A58EF"/>
<circle id="Ellipse 97" cx="18" cy="4" r="4" fill="#9A58EF"/>
<circle id="Ellipse 49" cx="102" cy="76" r="4" fill="#9A58EF"/>
<circle id="Ellipse 98" cx="102" cy="4" r="4" fill="#9A58EF"/>
<circle id="Ellipse 25" cx="18" cy="112" r="4" fill="#9A58EF"/>
<circle id="Ellipse 99" cx="18" cy="40" r="4" fill="#9A58EF"/>
<circle id="Ellipse 50" cx="102" cy="112" r="4" fill="#9A58EF"/>
<circle id="Ellipse 100" cx="102" cy="40" r="4" fill="#9A58EF"/>
<circle id="Ellipse 9" cx="18" cy="88" r="4" fill="#9A58EF"/>
<circle id="Ellipse 101" cx="18" cy="16" r="4" fill="#9A58EF"/>
<circle id="Ellipse 51" cx="102" cy="88" r="4" fill="#9A58EF"/>
<circle id="Ellipse 102" cx="102" cy="16" r="4" fill="#9A58EF"/>
<circle id="Ellipse 26" cx="18" cy="124" r="4" fill="#9A58EF"/>
<circle id="Ellipse 103" cx="18" cy="52" r="4" fill="#9A58EF"/>
<circle id="Ellipse 52" cx="102" cy="124" r="4" fill="#9A58EF"/>
<circle id="Ellipse 104" cx="102" cy="52" r="4" fill="#9A58EF"/>
<circle id="Ellipse 15" cx="18" cy="100" r="4" fill="#9A58EF"/>
<circle id="Ellipse 105" cx="18" cy="28" r="4" fill="#9A58EF"/>
<circle id="Ellipse 53" cx="102" cy="100" r="4" fill="#9A58EF"/>
<circle id="Ellipse 106" cx="102" cy="28" r="4" fill="#9A58EF"/>
<circle id="Ellipse 27" cx="18" cy="136" r="4" fill="#9A58EF"/>
<circle id="Ellipse 107" cx="18" cy="64" r="4" fill="#9A58EF"/>
<circle id="Ellipse 54" cx="102" cy="136" r="4" fill="#9A58EF"/>
<circle id="Ellipse 108" cx="102" cy="64" r="4" fill="#9A58EF"/>
<circle id="Ellipse 5" cx="60" cy="76" r="4" fill="#9A58EF"/>
<circle id="Ellipse 109" cx="60" cy="4" r="4" fill="#9A58EF"/>
<circle id="Ellipse 55" cx="144" cy="76" r="4" fill="#9A58EF"/>
<circle id="Ellipse 110" cx="144" cy="4" r="4" fill="#9A58EF"/>
<circle id="Ellipse 28" cx="60" cy="112" r="4" fill="#9A58EF"/>
<circle id="Ellipse 111" cx="60" cy="40" r="4" fill="#9A58EF"/>
<circle id="Ellipse 56" cx="144" cy="112" r="4" fill="#9A58EF"/>
<circle id="Ellipse 112" cx="144" cy="40" r="4" fill="#9A58EF"/>
<circle id="Ellipse 10" cx="60" cy="88" r="4" fill="#9A58EF"/>
<circle id="Ellipse 113" cx="60" cy="16" r="4" fill="#9A58EF"/>
<circle id="Ellipse 57" cx="144" cy="88" r="4" fill="#9A58EF"/>
<circle id="Ellipse 114" cx="144" cy="16" r="4" fill="#9A58EF"/>
<circle id="Ellipse 29" cx="60" cy="124" r="4" fill="#9A58EF"/>
<circle id="Ellipse 115" cx="60" cy="52" r="4" fill="#9A58EF"/>
<circle id="Ellipse 58" cx="144" cy="124" r="4" fill="#9A58EF"/>
<circle id="Ellipse 116" cx="144" cy="52" r="4" fill="#9A58EF"/>
<circle id="Ellipse 16" cx="60" cy="100" r="4" fill="#9A58EF"/>
<circle id="Ellipse 117" cx="60" cy="28" r="4" fill="#9A58EF"/>
<circle id="Ellipse 59" cx="144" cy="100" r="4" fill="#9A58EF"/>
<circle id="Ellipse 118" cx="144" cy="28" r="4" fill="#9A58EF"/>
<circle id="Ellipse 30" cx="60" cy="136" r="4" fill="#9A58EF"/>
<circle id="Ellipse 119" cx="60" cy="64" r="4" fill="#9A58EF"/>
<circle id="Ellipse 60" cx="144" cy="136" r="4" fill="#9A58EF"/>
<circle id="Ellipse 120" cx="144" cy="64" r="4" fill="#9A58EF"/>
<circle id="Ellipse 3" cx="32" cy="76" r="4" fill="#9A58EF"/>
<circle id="Ellipse 121" cx="32" cy="4" r="4" fill="#9A58EF"/>
<circle id="Ellipse 61" cx="116" cy="76" r="4" fill="#9A58EF"/>
<circle id="Ellipse 122" cx="116" cy="4" r="4" fill="#9A58EF"/>
<circle id="Ellipse 31" cx="32" cy="112" r="4" fill="#9A58EF"/>
<circle id="Ellipse 123" cx="32" cy="40" r="4" fill="#9A58EF"/>
<circle id="Ellipse 62" cx="116" cy="112" r="4" fill="#9A58EF"/>
<circle id="Ellipse 124" cx="116" cy="40" r="4" fill="#9A58EF"/>
<circle id="Ellipse 11" cx="32" cy="88" r="4" fill="#9A58EF"/>
<circle id="Ellipse 125" cx="32" cy="16" r="4" fill="#9A58EF"/>
<circle id="Ellipse 63" cx="116" cy="88" r="4" fill="#9A58EF"/>
<circle id="Ellipse 126" cx="116" cy="16" r="4" fill="#9A58EF"/>
<circle id="Ellipse 32" cx="32" cy="124" r="4" fill="#9A58EF"/>
<circle id="Ellipse 127" cx="32" cy="52" r="4" fill="#9A58EF"/>
<circle id="Ellipse 64" cx="116" cy="124" r="4" fill="#9A58EF"/>
<circle id="Ellipse 128" cx="116" cy="52" r="4" fill="#9A58EF"/>
<circle id="Ellipse 17" cx="32" cy="100" r="4" fill="#9A58EF"/>
<circle id="Ellipse 129" cx="32" cy="28" r="4" fill="#9A58EF"/>
<circle id="Ellipse 65" cx="116" cy="100" r="4" fill="#9A58EF"/>
<circle id="Ellipse 130" cx="116" cy="28" r="4" fill="#9A58EF"/>
<circle id="Ellipse 33" cx="32" cy="136" r="4" fill="#9A58EF"/>
<circle id="Ellipse 131" cx="32" cy="64" r="4" fill="#9A58EF"/>
<circle id="Ellipse 66" cx="116" cy="136" r="4" fill="#9A58EF"/>
<circle id="Ellipse 132" cx="116" cy="64" r="4" fill="#9A58EF"/>
<circle id="Ellipse 6" cx="74" cy="76" r="4" fill="#9A58EF"/>
<circle id="Ellipse 133" cx="74" cy="4" r="4" fill="#9A58EF"/>
<circle id="Ellipse 67" cx="158" cy="76" r="4" fill="#9A58EF"/>
<circle id="Ellipse 134" cx="158" cy="4" r="4" fill="#9A58EF"/>
<circle id="Ellipse 34" cx="74" cy="112" r="4" fill="#9A58EF"/>
<circle id="Ellipse 135" cx="74" cy="40" r="4" fill="#9A58EF"/>
<circle id="Ellipse 68" cx="158" cy="112" r="4" fill="#9A58EF"/>
<circle id="Ellipse 136" cx="158" cy="40" r="4" fill="#9A58EF"/>
<circle id="Ellipse 12" cx="74" cy="88" r="4" fill="#9A58EF"/>
<circle id="Ellipse 137" cx="74" cy="16" r="4" fill="#9A58EF"/>
<circle id="Ellipse 69" cx="158" cy="88" r="4" fill="#9A58EF"/>
<circle id="Ellipse 138" cx="158" cy="16" r="4" fill="#9A58EF"/>
<circle id="Ellipse 35" cx="74" cy="124" r="4" fill="#9A58EF"/>
<circle id="Ellipse 139" cx="74" cy="52" r="4" fill="#9A58EF"/>
<circle id="Ellipse 70" cx="158" cy="124" r="4" fill="#9A58EF"/>
<circle id="Ellipse 140" cx="158" cy="52" r="4" fill="#9A58EF"/>
<circle id="Ellipse 18" cx="74" cy="100" r="4" fill="#9A58EF"/>
<circle id="Ellipse 141" cx="74" cy="28" r="4" fill="#9A58EF"/>
<circle id="Ellipse 71" cx="158" cy="100" r="4" fill="#9A58EF"/>
<circle id="Ellipse 142" cx="158" cy="28" r="4" fill="#9A58EF"/>
<circle id="Ellipse 36" cx="74" cy="136" r="4" fill="#9A58EF"/>
<circle id="Ellipse 143" cx="74" cy="64" r="4" fill="#9A58EF"/>
<circle id="Ellipse 72" cx="158" cy="136" r="4" fill="#9A58EF"/>
<circle id="Ellipse 144" cx="158" cy="64" r="4" fill="#9A58EF"/>
</g>
</svg>
